<svg xmlns="http://www.w3.org/2000/svg" viewBox="0 0 520.92 58.46"><defs><style>.cls-1{fill:#fff;}</style></defs><g id="Layer_2" data-name="Layer 2"><g id="Layer_1-2" data-name="Layer 1"><path class="cls-1" d="M24.74,36.52c0,6.2-5.4,9.54-12.09,9.54C6.45,46.06,2,43.27,0,38.81l5.77-3.35c1,2.79,3.47,4.47,6.88,4.47,3,0,5.27-1,5.27-3.48,0-5.51-16.68-2.41-16.68-13.51,0-5.83,5-9.49,11.34-9.49,5.09,0,9.3,2.36,11.47,6.45l-5.64,3.16a6,6,0,0,0-5.83-3.53c-2.41,0-4.52,1-4.52,3.28C8.06,28.46,24.74,25.05,24.74,36.52Z"></path><path class="cls-1" d="M28.09,29.76a16.37,16.37,0,1,1,16.36,16.3A16.18,16.18,0,0,1,28.09,29.76Zm26,0a9.67,9.67,0,1,0-19.34,0,9.67,9.67,0,1,0,19.34,0Z"></path><path class="cls-1" d="M112.47,26V45.26h-6.7V26.47c0-4.34-2.36-6.76-6-6.76-4,0-6.76,2.55-6.76,8.19V45.26H86.3V26.47c0-4.34-2.17-6.76-5.82-6.76s-6.89,2.55-6.89,8.19V45.26H66.9v-31h6.69V18a10,10,0,0,1,8.87-4.53,9.62,9.62,0,0,1,8.8,4.9,10.64,10.64,0,0,1,9.49-4.9C107.75,13.45,112.47,18.29,112.47,26Z"></path><path class="cls-1" d="M134.85,39.93a9.47,9.47,0,0,0,8-3.85l5.51,3.23c-2.85,4.21-7.5,6.75-13.57,6.75-10.23,0-16.87-7-16.87-16.3s6.64-16.31,16.37-16.31c9.24,0,15.56,7.44,15.56,16.37a19.42,19.42,0,0,1-.25,2.79H124.93C126,37.45,129.89,39.93,134.85,39.93Zm8.24-12.78a8.62,8.62,0,0,0-8.86-7.62,9,9,0,0,0-9.36,7.62Z"></path><path class="cls-1" d="M164.36,20.71V35.59c0,4,2.6,3.9,7.69,3.65v6c-10.29,1.24-14.39-1.61-14.39-9.67V20.71H152V14.26h5.7V7.56l6.7-2v8.68h7.69v6.45Z"></path><path class="cls-1" d="M206.33,26.22v19h-6.69V26.91c0-4.72-2.73-7.2-6.95-7.2-4.4,0-7.87,2.61-7.87,8.93V45.26h-6.69V1.86h6.69V18.23c2.05-3.23,5.39-4.78,9.61-4.78C201.37,13.45,206.33,18.16,206.33,26.22Z"></path><path class="cls-1" d="M212.6,5.33a4.28,4.28,0,1,1,4.28,4.28A4.32,4.32,0,0,1,212.6,5.33Zm.93,8.93h6.69v31h-6.69Z"></path><path class="cls-1" d="M256.18,26.22v19h-6.69V26.91c0-4.72-2.73-7.2-7-7.2-4.4,0-7.87,2.61-7.87,8.93V45.26H228v-31h6.7v4c2-3.23,5.39-4.78,9.61-4.78C251.22,13.45,256.18,18.16,256.18,26.22Z"></path><path class="cls-1" d="M294.62,14.26V43.83c0,10-7.81,14.63-15.93,14.63-6.82,0-12.09-2.54-14.69-7.5l5.76-3.35c1.36,2.67,3.66,4.78,9.05,4.78,5.77,0,9.24-3.16,9.24-8.56V40.05a12.64,12.64,0,0,1-10.79,5.39,15.72,15.72,0,0,1-15.62-16,15.72,15.72,0,0,1,15.62-16,12.64,12.64,0,0,1,10.79,5.4V14.26Zm-6.57,15.19a9.86,9.86,0,0,0-19.72,0,9.86,9.86,0,0,0,19.72,0Z"></path><path class="cls-1" d="M311.36,13.64v.62h7.32v6.45h-7.32V45.26h-6.69V20.71H300V14.26h4.71v-.62c0-8.37,4.71-13.21,14-12.59V7.5C314,7.07,311.36,8.87,311.36,13.64Z"></path><path class="cls-1" d="M352.41,14.26v31h-6.7V40.79a12.73,12.73,0,0,1-10.85,5.27c-8.43,0-15.44-7.13-15.44-16.3s7-16.31,15.44-16.31a12.86,12.86,0,0,1,10.85,5.21v-4.4Zm-6.7,15.5a9.8,9.8,0,1,0-19.59,0,9.8,9.8,0,1,0,19.59,0Z"></path><path class="cls-1" d="M405.79,26V45.26h-6.7V26.47c0-4.34-2.36-6.76-6-6.76-4,0-6.76,2.55-6.76,8.19V45.26h-6.7V26.47c0-4.34-2.17-6.76-5.82-6.76s-6.89,2.55-6.89,8.19V45.26h-6.69v-31h6.69V18a10,10,0,0,1,8.87-4.53,9.61,9.61,0,0,1,8.8,4.9,10.65,10.65,0,0,1,9.49-4.9C401.07,13.45,405.79,18.29,405.79,26Z"></path><path class="cls-1" d="M412.05,5.33a4.28,4.28,0,0,1,8.56,0,4.28,4.28,0,0,1-8.56,0Zm.93,8.93h6.7v31H413Z"></path><path class="cls-1" d="M427.43,0h6.69V45.26h-6.69Z"></path><path class="cls-1" d="M441.87,14.26h6.7v31h-6.7Z"></path><path class="cls-1" d="M487.56,14.26v31h-6.69V40.79A12.74,12.74,0,0,1,470,46.06c-8.43,0-15.44-7.13-15.44-16.3s7-16.31,15.44-16.31a12.87,12.87,0,0,1,10.85,5.21v-4.4Zm-6.69,15.5a9.8,9.8,0,1,0-19.59,0,9.8,9.8,0,1,0,19.59,0Z"></path><path class="cls-1" d="M511.62,13.7V21c-4.4-.31-9.55,1.74-9.55,8.68V45.26h-6.69v-31h6.69v5.21C503.93,15.25,507.71,13.7,511.62,13.7Z"></path><path class="cls-1" d="M511.62,41.35a4.65,4.65,0,0,1,9.3,0,4.65,4.65,0,0,1-9.3,0Z"></path></g></g></svg>