<svg xmlns="http://www.w3.org/2000/svg" viewBox="0 0 532.02 57.41"><defs><style>.cls-1{fill:#fff;}</style></defs><g id="Layer_2" data-name="Layer 2"><g id="Layer_1-2" data-name="Layer 1"><path class="cls-1" d="M24.74,35.46c0,6.2-5.4,9.55-12.09,9.55C6.45,45,2,42.22,0,37.76l5.77-3.35c1,2.79,3.47,4.46,6.88,4.46,3,0,5.27-1,5.27-3.47,0-5.52-16.68-2.42-16.68-13.52,0-5.82,5-9.48,11.34-9.48,5.09,0,9.3,2.36,11.47,6.45L18.41,22a6,6,0,0,0-5.83-3.54c-2.41,0-4.52,1.06-4.52,3.29C8.06,27.4,24.74,24,24.74,35.46Z"></path><path class="cls-1" d="M28.09,28.7A16.37,16.37,0,1,1,44.45,45,16.18,16.18,0,0,1,28.09,28.7Zm26,0a9.67,9.67,0,1,0-19.34,0,9.67,9.67,0,1,0,19.34,0Z"></path><path class="cls-1" d="M112.47,25V44.2h-6.7V25.42c0-4.34-2.36-6.76-6-6.76-4,0-6.76,2.54-6.76,8.18V44.2H86.3V25.42c0-4.34-2.17-6.76-5.82-6.76s-6.89,2.54-6.89,8.18V44.2H66.9v-31h6.69v3.72a10,10,0,0,1,8.87-4.53,9.62,9.62,0,0,1,8.8,4.9,10.62,10.62,0,0,1,9.49-4.9C107.75,12.4,112.47,17.23,112.47,25Z"></path><path class="cls-1" d="M134.85,38.87a9.47,9.47,0,0,0,8-3.84l5.51,3.22c-2.85,4.22-7.5,6.76-13.57,6.76-10.23,0-16.87-7-16.87-16.31s6.64-16.3,16.37-16.3c9.24,0,15.56,7.44,15.56,16.37a19.42,19.42,0,0,1-.25,2.79H124.93C126,36.39,129.89,38.87,134.85,38.87Zm8.24-12.77a8.63,8.63,0,0,0-8.86-7.63,9,9,0,0,0-9.36,7.63Z"></path><path class="cls-1" d="M164.36,19.65V34.53c0,4,2.6,3.91,7.69,3.66v6c-10.29,1.24-14.39-1.61-14.39-9.67V19.65H152V13.21h5.7V6.51l6.7-2v8.68h7.69v6.44Z"></path><path class="cls-1" d="M206.33,25.17v19h-6.69V25.85c0-4.71-2.73-7.19-6.95-7.19-4.4,0-7.87,2.6-7.87,8.93V44.2h-6.69V.81h6.69V17.17c2.05-3.22,5.39-4.77,9.61-4.77C201.37,12.4,206.33,17.11,206.33,25.17Z"></path><path class="cls-1" d="M212.6,4.28a4.28,4.28,0,1,1,8.55,0,4.28,4.28,0,1,1-8.55,0Zm.93,8.93h6.69v31h-6.69Z"></path><path class="cls-1" d="M256.18,25.17v19h-6.69V25.85c0-4.71-2.73-7.19-7-7.19-4.4,0-7.87,2.6-7.87,8.93V44.2H228v-31h6.7v4c2-3.22,5.39-4.77,9.61-4.77C251.22,12.4,256.18,17.11,256.18,25.17Z"></path><path class="cls-1" d="M294.62,13.21V42.78c0,10-7.81,14.63-15.93,14.63-6.82,0-12.09-2.54-14.69-7.5l5.76-3.35c1.36,2.67,3.66,4.77,9.05,4.77,5.77,0,9.24-3.16,9.24-8.55V39a12.66,12.66,0,0,1-10.79,5.39,15.72,15.72,0,0,1-15.62-16,15.72,15.72,0,0,1,15.62-16,12.66,12.66,0,0,1,10.79,5.39V13.21Zm-6.57,15.18a9.86,9.86,0,0,0-19.72,0,9.86,9.86,0,0,0,19.72,0Z"></path><path class="cls-1" d="M335.42,28.7c0,9.24-7,16.31-15.44,16.31a12.84,12.84,0,0,1-10.85-5.21V56.6h-6.69V13.21h6.69v4.46A12.73,12.73,0,0,1,320,12.4C328.41,12.4,335.42,19.53,335.42,28.7Zm-6.7,0a9.8,9.8,0,1,0-19.59,0,9.8,9.8,0,1,0,19.59,0Z"></path><path class="cls-1" d="M339.76,28.7A16.37,16.37,0,1,1,356.13,45,16.18,16.18,0,0,1,339.76,28.7Zm26,0a9.68,9.68,0,1,0-19.35,0,9.68,9.68,0,1,0,19.35,0Z"></path><path class="cls-1" d="M400.64,35.46c0,6.2-5.39,9.55-12.09,9.55-6.2,0-10.66-2.79-12.65-7.25l5.77-3.35c1,2.79,3.47,4.46,6.88,4.46,3,0,5.27-1,5.27-3.47,0-5.52-16.68-2.42-16.68-13.52,0-5.82,5-9.48,11.35-9.48,5.08,0,9.3,2.36,11.47,6.45L394.32,22a6.05,6.05,0,0,0-5.83-3.54c-2.42,0-4.53,1.06-4.53,3.29C384,27.4,400.64,24,400.64,35.46Z"></path><path class="cls-1" d="M405.23,4.28a4.28,4.28,0,0,1,8.56,0,4.28,4.28,0,0,1-8.56,0Zm.93,8.93h6.7v31h-6.7Z"></path><path class="cls-1" d="M430.21,19.65V34.53c0,4,2.61,3.91,7.69,3.66v6c-10.29,1.24-14.38-1.61-14.38-9.67V19.65h-5.7V13.21h5.7V6.51l6.69-2v8.68h7.69v6.44Z"></path><path class="cls-1" d="M444,13.21h6.7v31H444Z"></path><path class="cls-1" d="M486.76,13.21l-12.09,31h-7.75l-12.09-31h7.32l8.67,23.55,8.62-23.55Z"></path><path class="cls-1" d="M504.92,38.87a9.47,9.47,0,0,0,8-3.84l5.52,3.22c-2.85,4.22-7.5,6.76-13.58,6.76C494.63,45,488,38,488,28.7s6.63-16.3,16.37-16.3c9.23,0,15.56,7.44,15.56,16.37a21,21,0,0,1-.25,2.79H495C496.06,36.39,500,38.87,504.92,38.87Zm8.25-12.77a8.63,8.63,0,0,0-8.87-7.63,9,9,0,0,0-9.36,7.63Z"></path><path class="cls-1" d="M522.72,40.3a4.65,4.65,0,1,1,9.3,0,4.65,4.65,0,1,1-9.3,0Z"></path></g></g></svg>